<svg width="180" height="50" viewBox="0 0 180 50" fill="none" xmlns="http://www.w3.org/2000/svg">
  <rect x="5" y="5" width="40" height="40" rx="4" fill="#3B82F6" />
  <path d="M15 25C15 19.4772 19.4772 15 25 15C30.5228 15 35 19.4772 35 25C35 30.5228 30.5228 35 25 35C19.4772 35 15 30.5228 15 25Z" fill="#9333EA" />
  <path d="M25 17C20.5817 17 17 20.5817 17 25C17 29.4183 20.5817 33 25 33C29.4183 33 33 29.4183 33 25C33 20.5817 29.4183 17 25 17ZM25 31C21.6863 31 19 28.3137 19 25C19 21.6863 21.6863 19 25 19C28.3137 19 31 21.6863 31 25C31 28.3137 28.3137 31 25 31Z" fill="white" />
  <path d="M55 20H59.5C63.5 20 66 22.5 66 26C66 29.5 63.5 32 59.5 32H55V20ZM59.5 30C62 30 63.5 28.5 63.5 26C63.5 23.5 62 22 59.5 22H57.5V30H59.5Z" fill="white" />
  <path d="M68 26C68 22.5 70.5 19.5 74.5 19.5C78.5 19.5 81 22.5 81 26C81 29.5 78.5 32.5 74.5 32.5C70.5 32.5 68 29.5 68 26ZM78.5 26C78.5 23.5 77 22 74.5 22C72 22 70.5 23.5 70.5 26C70.5 28.5 72 30 74.5 30C77 30 78.5 28.5 78.5 26Z" fill="white" />
  <path d="M91 25.5V32H88.5V31C87.8333 31.8333 86.5 32.5 85 32.5C82.5 32.5 81 31 81 29C81 26.5 83 25.5 85.5 25.5H88.5C88.5 24 87.5 22.5 85.5 22.5C84.1667 22.5 83 23 82 24L80.5 22C82 20.5 83.5 19.5 86 19.5C89.5 19.5 91 21.5 91 25.5ZM88.5 28.5V27.5H85.5C84 27.5 83.5 28 83.5 29C83.5 30 84.5 30.5 85.5 30.5C87 30.5 88.5 29.5 88.5 28.5Z" fill="white" />
  <path d="M93 20H95.5V22C96.3333 20.6667 97.9 19.5 100 19.5C103 19.5 105 21.5 105 25V32H102.5V25.5C102.5 23 101 22 99.5 22C97.5 22 95.5 23.5 95.5 26V32H93V20Z" fill="white" />
  <path d="M107 26C107 22.5 109.5 19.5 113.5 19.5C116.5 19.5 119 21.5 119.5 25H109.5C109.667 27.5 111.5 30 114.5 30C116.167 30 117.5 29 118.5 28L119.5 30C118.333 31.3333 116.5 32.5 114 32.5C110 32.5 107 29.5 107 26ZM117 23C116.5 21 115 19.5 113 19.5C110.5 19.5 109 21.5 109 23H117Z" fill="white" />
  <path d="M121 20H123.5V22C124.333 20.6667 125.9 19.5 128 19.5C131 19.5 133 21.5 133 25V32H130.5V25.5C130.5 23 129 22 127.5 22C125.5 22 123.5 23.5 123.5 26V32H121V20Z" fill="white" />
  <path d="M135 26C135 22.5 138 19.5 142 19.5C146 19.5 149 22.5 149 26C149 29.5 146 32.5 142 32.5C138 32.5 135 29.5 135 26ZM146.5 26C146.5 23.5 144.5 22 142 22C139.5 22 137.5 23.5 137.5 26C137.5 28.5 139.5 30 142 30C144.5 30 146.5 28.5 146.5 26Z" fill="white" />
  <path d="M151 15H153.5V32H151V15Z" fill="white" />
  <path d="M156 15H158.5V17.5H156V15ZM156 20H158.5V32H156V20Z" fill="white" />
  <path d="M161 26C161 22.5 163.5 19.5 167.5 19.5C171.5 19.5 174 22.5 174 26C174 29.5 171.5 32.5 167.5 32.5C163.5 32.5 161 29.5 161 26ZM171.5 26C171.5 23.5 170 22 167.5 22C165 22 163.5 23.5 163.5 26C163.5 28.5 165 30 167.5 30C170 30 171.5 28.5 171.5 26Z" fill="white" />
  <path d="M175 20H177.5V22C178.333 20.6667 179.9 19.5 182 19.5C185 19.5 187 21.5 187 25V32H184.5V25.5C184.5 23 183 22 181.5 22C179.5 22 177.5 23.5 177.5 26V32H175V20Z" fill="white" />
</svg>