<svg xmlns="http://www.w3.org/2000/svg" viewBox="0 0 800 600" width="800" height="600">
  <!-- Background with purple gradient -->
  <rect width="800" height="600" fill="#8a2be2" opacity="0.2"/>
  
  <!-- Meeting room table -->
  <rect x="150" y="350" width="500" height="20" rx="5" ry="5" fill="#6d4c41"/>
  
  <!-- Meeting room wall -->
  <rect x="100" y="100" width="600" height="250" fill="#1976d2" opacity="0.3"/>
  
  <!-- Window blinds -->
  <rect x="150" y="120" width="200" height="180" fill="#e0e0e0" opacity="0.5"/>
  <rect x="150" y="120" width="200" height="20" fill="#bdbdbd"/>
  <rect x="150" y="150" width="200" height="2" fill="#9e9e9e"/>
  <rect x="150" y="180" width="200" height="2" fill="#9e9e9e"/>
  <rect x="150" y="210" width="200" height="2" fill="#9e9e9e"/>
  <rect x="150" y="240" width="200" height="2" fill="#9e9e9e"/>
  <rect x="150" y="270" width="200" height="2" fill="#9e9e9e"/>
  
  <!-- Plant -->
  <rect x="450" y="150" width="50" height="50" fill="#795548"/>
  <circle cx="475" cy="120" r="30" fill="#4caf50"/>
  <circle cx="455" cy="100" r="20" fill="#4caf50"/>
  <circle cx="495" cy="100" r="20" fill="#4caf50"/>
  
  <!-- People silhouettes -->
  <!-- Person 1 (standing, presenting) -->
  <circle cx="200" cy="300" r="25" fill="#455a64"/>
  <rect x="190" y="325" width="20" height="60" fill="#455a64"/>
  <rect x="170" y="340" width="15" height="40" fill="#455a64" transform="rotate(20, 170, 340)"/>
  
  <!-- Person 2 (sitting) -->
  <circle cx="300" cy="320" r="20" fill="#37474f"/>
  <rect x="290" y="340" width="20" height="40" fill="#37474f"/>
  
  <!-- Person 3 (sitting) -->
  <circle cx="400" cy="320" r="20" fill="#263238"/>
  <rect x="390" y="340" width="20" height="40" fill="#263238"/>
  
  <!-- Person 4 (sitting with laptop) -->
  <circle cx="500" cy="320" r="20" fill="#546e7a"/>
  <rect x="490" y="340" width="20" height="40" fill="#546e7a"/>
  <rect x="470" y="330" width="60" height="30" fill="#90a4ae"/>
  
  <!-- Person 5 (sitting) -->
  <circle cx="600" cy="320" r="20" fill="#78909c"/>
  <rect x="590" y="340" width="20" height="40" fill="#78909c"/>
  
  <!-- Coffee cups and water glasses -->
  <circle cx="320" cy="350" r="5" fill="#d7ccc8"/>
  <circle cx="420" cy="350" r="5" fill="#d7ccc8"/>
  <rect x="515" cy="350" width="10" height="15" fill="#e0e0e0"/>
  
  <!-- Presentation screen -->
  <rect x="550" y="150" width="100" height="70" fill="#eceff1"/>
</svg>